HIERARCHY
ROOT Pelvis
{
	OFFSET 0.000000 0.000000 0.000000
	CHANNELS 6 Xposition Yposition Zposition Xrotation Yrotation Zrotation
	JOINT LeftUpLeg_virtual
	{
		OFFSET 0.000000 0.000000 0.000000
		CHANNELS 3 Xrotation Yrotation Zrotation
		JOINT LeftUpLeg
		{
			OFFSET 8.479700 -4.795502 -0.379100
			CHANNELS 3 Xrotation Yrotation Zrotation
			JOINT LeftLeg
			{
				OFFSET 0.024144 -32.555107 0.112900
				CHANNELS 3 Xrotation Yrotation Zrotation
				JOINT LeftFoot
				{
					OFFSET -0.024144 -32.638630 -3.012600
					CHANNELS 3 Xrotation Yrotation Zrotation
					JOINT LeftToeBase
					{
						OFFSET 0.970200 -13.225400 11.864200
						CHANNELS 3 Xrotation Yrotation Zrotation
						End Site
						{
							OFFSET 0 0 0
						}
					}
				}
			}
		}
	}
	JOINT RightUpLeg_virtual
	{
		OFFSET 0.000000 0.000000 0.000000
		CHANNELS 3 Xrotation Yrotation Zrotation
		JOINT RightUpLeg
		{
			OFFSET -8.479700 -4.795502 -0.379100
			CHANNELS 3 Xrotation Yrotation Zrotation
			JOINT RightLeg
			{
				OFFSET -0.023144 -32.555092 0.112900
				CHANNELS 3 Xrotation Yrotation Zrotation
				JOINT RightFoot
				{
					OFFSET 0.023144 -32.638641 -3.012700
					CHANNELS 3 Xrotation Yrotation Zrotation
					JOINT RightToeBase
					{
						OFFSET -0.970200 -13.225400 11.864200
						CHANNELS 3 Xrotation Yrotation Zrotation
						End Site
						{
							OFFSET 0 0 0
						}
					}
				}
			}
		}
	}
	JOINT Hips_virtual
	{
		OFFSET 0.000000 0.000000 0.000000
		CHANNELS 3 Xrotation Yrotation Zrotation
		JOINT Hips
		{
			OFFSET -0.000000 -0.000000 -0.000000
			CHANNELS 3 Xrotation Yrotation Zrotation
			JOINT Spine
			{
				OFFSET 0.000000 7.722000 1.166200
				CHANNELS 3 Xrotation Yrotation Zrotation
				JOINT Spine1
				{
					OFFSET 0.000000 12.024101 0.248800
					CHANNELS 3 Xrotation Yrotation Zrotation
					JOINT Spine2
					{
						OFFSET 0.000000 11.502998 -0.491200
						CHANNELS 3 Xrotation Yrotation Zrotation
						JOINT Neck_virtual
						{
							OFFSET 0.000000 0.000000 0.000000
							CHANNELS 3 Xrotation Yrotation Zrotation
							JOINT Neck
							{
								OFFSET 0.000000 18.430702 -3.123100
								CHANNELS 3 Xrotation Yrotation Zrotation
								JOINT Head
								{
									OFFSET 0.000000 9.051102 1.034000
									CHANNELS 3 Xrotation Yrotation Zrotation
									End Site
									{
										OFFSET 0 0 0
									}
								}
							}
						}
						JOINT LeftShoulder_virtual
						{
							OFFSET 0.000000 0.000000 0.000000
							CHANNELS 3 Xrotation Yrotation Zrotation
							JOINT LeftShoulder
							{
								OFFSET 6.197800 13.665199 -4.064700
								CHANNELS 3 Xrotation Yrotation Zrotation
								JOINT LeftArm
								{
									OFFSET 7.778100 -0.187103 -1.709300
									CHANNELS 3 Xrotation Yrotation Zrotation
									JOINT LeftForeArm
									{
										OFFSET 22.049376 0.000000 0.000000
										CHANNELS 3 Xrotation Yrotation Zrotation
										JOINT LeftHand
										{
											OFFSET 23.009392 0.000000 0.000000
											CHANNELS 3 Xrotation Yrotation Zrotation
											End Site
											{
												OFFSET 0 0 0
											}
										}
									}
								}
							}
						}
						JOINT RightShoulder_virtual
						{
							OFFSET 0.000000 0.000000 0.000000
							CHANNELS 3 Xrotation Yrotation Zrotation
							JOINT RightShoulder
							{
								OFFSET -6.197800 13.665199 -4.064700
								CHANNELS 3 Xrotation Yrotation Zrotation
								JOINT RightArm
								{
									OFFSET -7.778100 -0.187103 -1.709300
									CHANNELS 3 Xrotation Yrotation Zrotation
									JOINT RightForeArm
									{
										OFFSET -22.049376 0.000000 0.000000
										CHANNELS 3 Xrotation Yrotation Zrotation
										JOINT RightHand
										{
											OFFSET -23.009392 0.000000 0.000000
											CHANNELS 3 Xrotation Yrotation Zrotation
											End Site
											{
												OFFSET 0 0 0
											}
										}
									}
								}
							}
						}
					}
				}
			}
		}
	}
}
MOTION
Frames: 7
Frame Time: 0.03333333
-0.011583 48.754890 1.122637 0.000000 0.000000 0.000000 0.144531 0.155173 0.936596 -91.315231 -6.423156 11.345607 82.454153 6.242664 0.212782 10.075573 -7.284520 -5.921167 0.000000 0.000000 0.000000 0.144531 0.155173 0.936596 -92.208162 7.729892 -7.455683 82.463182 -5.943912 -1.840578 11.083551 0.323766 6.986197 0.000000 0.000000 0.000000 0.144531 0.155173 0.936596 0.000000 0.000000 0.000000 10.430383 0.027195 -1.545301 -0.199258 0.213327 -0.355463 0.000000 0.000000 0.000000 -0.199581 0.248527 -0.300880 -1.001767 -1.284342 0.469464 0.000000 0.000000 0.000000 -0.199581 0.248527 -0.300880 0.823521 -15.262029 -7.868751 4.746709 -21.216444 -54.862231 0.000048 -62.197506 0.000061 0.000000 0.000000 0.000000 -0.199581 0.248527 -0.300880 3.171091 -4.378722 8.782886 -3.950245 37.253368 63.733615 -0.000021 55.137938 0.000016 0.000000 0.000000 0.000000 
-0.021409 48.793419 1.070686 0.000000 0.000000 0.000000 -0.414118 0.138001 1.031546 -90.675658 -6.279222 11.389434 82.365893 6.218821 0.212816 10.076949 -7.284131 -5.895894 0.000000 0.000000 0.000000 -0.414118 0.138001 1.031546 -91.634276 7.683678 -7.563208 82.420330 -5.818972 -1.841095 11.079725 0.311666 6.862986 0.000000 0.000000 0.000000 -0.414118 0.138001 1.031546 0.000000 0.000000 0.000000 10.212730 -0.004518 -1.542463 0.247318 0.210143 -0.363243 0.000000 0.000000 0.000000 0.247051 0.242483 -0.311429 -0.863843 -1.257150 0.466748 0.000000 0.000000 0.000000 0.247051 0.242483 -0.311429 0.823221 -15.329303 -7.716560 4.455921 -21.455905 -54.700840 -0.000019 -61.301269 -0.000018 0.000000 0.000000 0.000000 0.247051 0.242483 -0.311429 3.130740 -4.188130 9.128581 -3.788744 37.492452 62.416687 -0.000005 54.701431 0.000012 0.000000 0.000000 0.000000 
-0.029558 48.838120 1.023296 0.000000 0.000000 0.000000 -0.957145 0.130996 1.122423 -90.046482 -6.130087 11.423628 82.268556 6.188535 0.213043 10.078656 -7.283190 -5.854500 0.000000 0.000000 0.000000 -0.957145 0.130996 1.122423 -91.060362 7.642062 -7.676434 82.373044 -5.706072 -1.841577 11.068652 0.300413 6.751676 0.000000 0.000000 0.000000 -0.957145 0.130996 1.122423 0.000000 0.000000 0.000000 10.001996 -0.031898 -1.537187 0.733887 0.214279 -0.373962 0.000000 0.000000 0.000000 0.733709 0.243699 -0.324692 -0.761071 -1.231934 0.475966 0.000000 0.000000 0.000000 0.733709 0.243699 -0.324692 0.826523 -15.600726 -7.588856 4.308934 -21.403929 -54.419768 -0.000067 -61.023772 -0.000082 0.000000 0.000000 0.000000 0.733709 0.243699 -0.324692 3.082113 -3.976043 9.440665 -3.601779 37.650769 61.027419 0.000011 54.399014 0.000005 0.000000 0.000000 0.000000 
-0.033908 48.887611 0.974236 0.000000 0.000000 0.000000 -1.484703 0.128492 1.211570 -89.427223 -5.974679 11.447957 82.156534 6.163601 0.213334 10.087611 -7.281922 -5.802130 0.000000 0.000000 0.000000 -1.484703 0.128492 1.211570 -90.490157 7.604827 -7.794042 82.309817 -5.596610 -1.842124 11.064026 0.290260 6.644337 0.000000 0.000000 0.000000 -1.484703 0.128492 1.211570 0.000000 0.000000 0.000000 9.796478 -0.057095 -1.530593 1.248923 0.222378 -0.387395 0.000000 0.000000 0.000000 1.248840 0.248826 -0.340488 -0.681236 -1.208184 0.490104 0.000000 0.000000 0.000000 1.248840 0.248826 -0.340488 0.832473 -15.979339 -7.489320 4.238270 -21.173434 -54.038879 -0.000020 -61.236669 -0.000027 0.000000 0.000000 0.000000 1.248840 0.248826 -0.340488 3.026187 -3.737179 9.731909 -3.408171 37.697597 59.557569 0.000002 54.333373 0.000004 0.000000 0.000000 0.000000 
-0.033342 48.940063 0.923479 0.000000 0.000000 0.000000 -1.988622 0.128729 1.299362 -88.827150 -5.816875 11.463243 82.034752 6.142653 0.213578 10.100799 -7.280240 -5.748542 0.000000 0.000000 0.000000 -1.988622 0.128729 1.299362 -89.933961 7.573863 -7.915226 82.233265 -5.489244 -1.842615 11.065456 0.281150 6.547258 0.000000 0.000000 0.000000 -1.988622 0.128729 1.299362 0.000000 0.000000 0.000000 9.597140 -0.080459 -1.522554 1.797858 0.233732 -0.404630 0.000000 0.000000 0.000000 1.797881 0.257127 -0.359928 -0.626299 -1.186259 0.506581 0.000000 0.000000 0.000000 1.797881 0.257127 -0.359928 0.840296 -16.448559 -7.432475 4.228457 -20.759382 -53.522961 0.000004 -62.090299 0.000015 0.000000 0.000000 0.000000 1.797881 0.257127 -0.359928 2.961170 -3.453757 10.001606 -3.229671 37.555344 57.967003 0.000019 54.696626 -0.000009 0.000000 0.000000 0.000000 
-0.028158 48.991272 0.871969 0.000000 0.000000 0.000000 -2.459980 0.128819 1.386291 -88.260722 -5.660722 11.469401 81.912410 6.131150 0.213637 10.115881 -7.278005 -5.701477 0.000000 0.000000 0.000000 -2.459980 0.128819 1.386291 -89.407518 7.552577 -8.038913 82.152136 -5.381223 -1.843009 11.071328 0.273086 6.464751 0.000000 0.000000 0.000000 -2.459980 0.128819 1.386291 0.000000 0.000000 0.000000 9.404049 -0.102961 -1.513389 2.381654 0.246926 -0.426642 0.000000 0.000000 0.000000 2.381782 0.267163 -0.384018 -0.592846 -1.166320 0.521175 0.000000 0.000000 0.000000 2.381782 0.267163 -0.384018 0.848225 -16.967295 -7.426442 4.236636 -20.197819 -52.840109 0.000010 -63.689718 0.000002 0.000000 0.000000 0.000000 2.381782 0.267163 -0.384018 2.885683 -3.106094 10.255042 -3.095229 37.156536 56.214018 0.000004 55.701986 -0.000029 0.000000 0.000000 0.000000 
-0.020096 49.035957 0.821547 0.000000 0.000000 0.000000 -2.889999 0.125161 1.472413 -87.743779 -5.514293 11.469953 81.800702 6.125175 0.213553 10.130195 -7.275634 -5.666849 0.000000 0.000000 0.000000 -2.889999 0.125161 1.472413 -88.930409 7.539398 -8.158122 82.076573 -5.274021 -1.843304 11.081053 0.265726 6.393932 0.000000 0.000000 0.000000 -2.889999 0.125161 1.472413 0.000000 0.000000 0.000000 9.215906 -0.125753 -1.503551 2.995972 0.259837 -0.454100 0.000000 0.000000 0.000000 2.996207 0.276800 -0.413456 -0.571549 -1.148196 0.529047 0.000000 0.000000 0.000000 2.996207 0.276800 -0.413456 0.854424 -17.480238 -7.466769 4.195340 -19.562942 -51.961269 0.000002 -66.074731 0.000002 0.000000 0.000000 0.000000 2.996207 0.276800 -0.413456 2.799018 -2.674955 10.502303 -3.038587 36.466455 54.263770 0.000073 57.539672 -0.000076 0.000000 0.000000 0.000000 
